:FULLY-SPECIFIED
:FORCE-ALL-JOINTS-BE-3DOF
:DEGREES
259
root 9.70257 16.6642 -0.266943 7.97966 -7.05484 1.26712
lfemur -32.0989 8.47165 -27.5842
ltibia 37.3619 0 0
lfoot -12.7843 6.73858 0
ltoes 1.55147 0 0
rfemur -6.59368 -1.5936 15.772
rtibia 57.2146 0 0
rfoot 6.72036 -3.82558 0
rtoes -20.242 0 0
lowerback -5.31287 1.07052 -2.78581
upperback -1.83236 1.56828 1.31474
thorax 0.977589 0.788588 2.99931
lowerneck -21.2412 -5.05063 -12.8246
upperneck 19.1583 -6.11357 13.332
head 10.4907 -2.23863 6.02442
lclavicle -9.36871e-15 -1.80077e-14 0
lhumerus -35.9999 -8.3447 88.4337
lradius 21.4952 0 0
lwrist -3.35849 0 0
lhand -9.29553 -22.9599 0
lfingers 7.12502 0 0
lthumb 16.6616 6.34084 0
rclavicle -9.36871e-15 -1.80077e-14 0
rhumerus -45.934 8.56676 -85.9053
rradius 39.0479 0 0
rwrist -21.9411 0 0
rhand -32.2603 -26.6139 0
rfingers 7.12502 0 0
rthumb -5.50004 -56.5208 0
260
root 9.72448 16.6828 -0.139767 7.82233 -6.95636 1.32908
lfemur -31.223 8.37318 -27.6943
ltibia 37.0228 0 0
lfoot -13.148 6.78418 0
ltoes 1.19251 0 0
rfemur -7.89246 -1.69282 15.8902
rtibia 58.3776 0 0
rfoot 5.15616 -4.47367 0
rtoes -20.1946 0 0
lowerback -5.26557 0.923022 -2.7864
upperback -1.73408 1.37 1.35533
thorax 1.06449 0.686933 3.02984
lowerneck -21.3105 -4.95164 -12.734
upperneck 19.2902 -5.98224 13.2309
head 10.5249 -2.18075 5.99679
lclavicle -8.01075e-15 -1.79495e-14 0
lhumerus -35.0471 -8.58432 88.3255
lradius 21.5871 0 0
lwrist -3.27907 0 0
lhand -9.4699 -23.0808 0
lfingers 7.12502 0 0
lthumb 16.4937 6.23364 0
rclavicle -8.01075e-15 -1.79495e-14 0
rhumerus -45.8984 8.54799 -85.7129
rradius 39.2703 0 0
rwrist -22.1004 0 0
rhand -32.1432 -26.2158 0
rfingers 7.12502 0 0
rthumb -5.38692 -56.1253 0
261
root 9.74562 16.7012 -0.0140553 7.66311 -6.84404 1.37689
lfemur -30.335 8.26875 -27.7846
ltibia 36.6556 0 0
lfoot -13.5011 6.8359 0
ltoes 0.788851 0 0
rfemur -9.20474 -1.77798 16.0431
rtibia 59.4659 0 0
rfoot 3.48009 -5.12946 0
rtoes -20.1264 0 0
lowerback -5.22521 0.770359 -2.77461
upperback -1.63039 1.16351 1.40241
thorax 1.16183 0.581026 3.06004
lowerneck -21.3746 -4.84966 -12.6402
upperneck 19.4223 -5.84784 13.1283
head 10.5576 -2.1217 5.96859
lclavicle -6.5609e-15 -1.78382e-14 0
lhumerus -34.074 -8.83824 88.2203
lradius 21.6876 0 0
lwrist -3.18088 0 0
lhand -9.65167 -23.2101 0
lfingers 7.12502 0 0
lthumb 16.3186 6.11849 0
rclavicle -6.5609e-15 -1.78382e-14 0
rhumerus -45.8543 8.5368 -85.5151
rradius 39.5279 0 0
rwrist -22.2726 0 0
rhand -32.0172 -25.8178 0
rfingers 7.12502 0 0
rthumb -5.26531 -55.7301 0
262
root 9.76601 16.7192 0.110436 7.50327 -6.71838 1.41276
lfemur -29.4364 8.15916 -27.8577
ltibia 36.2617 0 0
lfoot -13.843 6.89149 0
ltoes 0.34989 0 0
rfemur -10.5249 -1.84931 16.2236
rtibia 60.4753 0 0
rfoot 1.71641 -5.78743 0
rtoes -20.0412 0 0
lowerback -5.19151 0.613402 -2.75286
upperback -1.52257 0.950206 1.4548
thorax 1.26803 0.471597 3.09004
lowerneck -21.4337 -4.74583 -12.5444
upperneck 19.5543 -5.7118 13.0248
head 10.5893 -2.0621 5.94001
lclavicle -5.03635e-15 -1.76762e-14 0
lhumerus -33.0857 -9.10651 88.1181
lradius 21.7965 0 0
lwrist -3.06382 0 0
lhand -9.83967 -23.3454 0
lfingers 7.12502 0 0
lthumb 16.1376 5.99788 0
rclavicle -5.03635e-15 -1.76762e-14 0
rhumerus -45.8037 8.53199 -85.3138
rradius 39.8135 0 0
rwrist -22.4545 0 0
rhand -31.8847 -25.4243 0
rfingers 7.12502 0 0
rthumb -5.1373 -55.3396 0
263
root 9.78566 16.7368 0.23395 7.34411 -6.57988 1.43886
lfemur -28.5286 8.04519 -27.916
ltibia 35.8424 0 0
lfoot -14.1733 6.94869 0
ltoes -0.114975 0 0
rfemur -11.8472 -1.90702 16.4247
rtibia 61.4015 0 0
rfoot -0.11065 -6.44205 0
rtoes -19.9428 0 0
lowerback -5.16416 0.453025 -2.72359
upperback -1.41193 0.731532 1.51134
thorax 1.3815 0.359376 3.11995
lowerneck -21.4881 -4.64132 -12.4475
upperneck 19.686 -5.57553 12.9211
head 10.6199 -2.00257 5.91122
lclavicle -3.45431e-15 -1.74662e-14 0
lhumerus -32.0876 -9.38918 88.0189
lradius 21.9137 0 0
lwrist -2.92777 0 0
lhand -10.0327 -23.484 0
lfingers 7.12502 0 0
lthumb 15.9517 5.87426 0
rclavicle -3.45431e-15 -1.74662e-14 0
rhumerus -45.749 8.53237 -85.111
rradius 40.1196 0 0
rwrist -22.643 0 0
rhand -31.7476 -25.0398 0
rfingers 7.12502 0 0
rthumb -5.00498 -54.958 0
264
root 9.80458 16.7539 0.356729 7.18691 -6.42903 1.45738
lfemur -27.613 7.92765 -27.9619
ltibia 35.3987 0 0
lfoot -14.4915 7.00524 0
ltoes -0.596347 0 0
rfemur -13.166 -1.95133 16.6392
rtibia 62.2402 0 0
rfoot -1.97683 -7.08778 0
rtoes -19.8352 0 0
lowerback -5.14287 0.290102 -2.68923
upperback -1.29976 0.508908 1.57085
thorax 1.50066 0.245093 3.1499
lowerneck -21.5384 -4.53727 -12.3506
upperneck 19.817 -5.44044 12.8179
head 10.6499 -1.94373 5.88244
lclavicle -1.83199e-15 -1.72107e-14 0
lhumerus -31.0847 -9.68631 87.9228
lradius 22.0388 0 0
lwrist -2.77265 0 0
lhand -10.2297 -23.6234 0
lfingers 7.12502 0 0
lthumb 15.762 5.75011 0
rclavicle -1.83199e-15 -1.72107e-14 0
rhumerus -45.6923 8.53674 -84.9086
rradius 40.439 0 0
rwrist -22.8348 0 0
rhand -31.6083 -24.6684 0
rfingers 7.12502 0 0
rthumb -4.87043 -54.5897 0
